<svg width="64" height="76" viewBox="0 0 64 76" fill="none" xmlns="http://www.w3.org/2000/svg">
<g clip-path="url(#clip0_711_164)">
<path d="M32.25 10.1318V10.0933C32.25 10.0933 32.2576 10.1087 32.25 10.1318Z" fill="#202020"/>
<path d="M33.395 10.3399C33.395 9.93156 33.5322 9.80058 33.395 9.39223C33.3742 9.19082 33.3334 8.99206 33.273 8.79896C33.1282 8.72191 33.273 8.537 33.113 8.44454L33.1739 8.39061C33.1358 8.39061 33.1053 8.32126 33.1358 8.27503C33.0748 8.22881 33.1358 8.15946 33.0672 8.13635V8.06701C33.0336 8.02868 33.0092 7.98299 32.9959 7.93353C32.9827 7.88406 32.981 7.83217 32.991 7.78193H32.8995C32.9757 7.5816 32.7852 7.53538 32.8995 7.34276C32.6327 7.15784 33.0062 6.98063 32.7547 6.78801C32.7547 6.78801 32.8004 6.78801 32.8233 6.78801C32.8462 6.78801 32.7547 6.57998 32.5794 6.6031C32.5794 6.53375 32.6251 6.53375 32.6937 6.51834C32.6626 6.52056 32.6317 6.5106 32.6076 6.49053C32.5835 6.47046 32.568 6.44181 32.5641 6.41048L32.5184 6.24868L32.3812 6.30261C32.3812 6.20245 32.5489 6.24868 32.5031 6.17163H32.3888C32.3888 6.04835 32.5565 5.94819 32.6327 5.81721C32.6327 5.3164 32.2363 4.82329 32.3812 4.33789L32.465 4.29937C32.5946 4.29937 32.2592 4.1992 32.3736 4.16838L32.3126 4.12216C32.3126 4.12216 32.3126 4.06822 32.3812 4.12216C32.4498 4.17609 32.3812 4.07593 32.3126 4.04511L32.3888 3.97577C32.4269 3.77544 32.244 3.62905 32.2516 3.42102C32.3812 3.15135 32.1677 2.70448 32.0382 2.45022C31.9086 2.19596 32.2516 1.58728 31.9772 1.23286C31.9772 1.23286 31.9772 1.18663 31.9314 1.19434V0.832213C31.9314 0.832213 31.7409 -0.885954 30.849 0.57025C30.8109 0.770574 30.8109 0.901556 30.971 1.00942C30.8033 1.05565 30.971 1.17122 30.9252 1.22516C31.0777 1.32532 30.849 1.47941 30.9862 1.57958H30.9176C30.9176 1.57958 31.0015 1.76449 30.9176 1.78761C30.971 1.98023 30.9634 2.2653 31.1387 2.36546C31.253 2.4194 31.1387 2.45792 31.2302 2.52727C31.3521 2.5889 31.2759 2.7507 31.3369 2.81234H31.253L31.2911 2.96644V2.92021C31.4817 2.92021 31.192 3.05119 31.2911 3.15135C31.2911 3.25922 31.7104 3.31315 31.6342 3.43643C31.7256 3.43643 31.4817 3.43643 31.5656 3.43643C31.4665 3.43643 31.497 3.43643 31.4207 3.43643C31.4817 3.50577 31.3445 3.57512 31.4207 3.65987H31.3445C31.4969 3.76774 31.2759 3.90642 31.4207 3.97577C31.5656 4.04511 31.2073 4.09134 31.375 4.1992L31.2835 4.26855C31.2835 4.33019 31.4131 4.26855 31.3674 4.361C31.3216 4.45346 31.3293 4.45346 31.2683 4.42264C31.1844 4.57674 31.4436 4.69231 31.3064 4.90804C31.436 4.90804 31.375 5.03132 31.4741 5.05444C31.4207 5.05444 31.4741 5.24706 31.3597 5.1546H31.2835C31.1616 5.28558 31.3902 5.33951 31.3826 5.45508C31.3826 5.45508 31.3826 5.37804 31.4436 5.39345V5.49361H31.4055V5.6477H31.4741C31.4741 5.72475 31.3216 5.76328 31.4741 5.83262C31.6265 5.90196 31.5656 5.74787 31.6037 5.83262C31.5466 5.95395 31.5105 6.08424 31.497 6.21786C31.5808 6.21786 31.5808 6.21786 31.6037 6.21786H31.5274C31.6494 6.33343 31.375 6.2872 31.4741 6.41048H31.4207H31.5808C31.7485 6.50293 31.436 6.49523 31.657 6.59539C31.657 6.54916 31.8171 6.54916 31.7942 6.59539H31.718C31.718 6.59539 31.7714 6.59539 31.7561 6.65703C31.7409 6.71867 31.6494 6.65703 31.6723 6.71096H31.5732L31.7256 6.78801C31.657 6.87277 31.7714 6.98063 31.6723 7.02686C31.5732 7.07309 31.6723 7.18866 31.7637 7.21177C31.6875 7.21177 31.6723 7.28112 31.5884 7.27341C31.6723 7.27341 31.7561 7.4121 31.6723 7.47374C31.6113 7.67406 31.8323 7.77422 31.7485 7.95143C31.84 7.95143 31.8019 8.02848 31.9086 7.98996C32.0458 8.14405 31.7256 8.32897 32.0839 8.34438C32.0839 8.42143 32.0153 8.44454 32 8.49077C32.0417 8.58286 32.065 8.68235 32.0687 8.78355C32.1068 8.82978 32.2668 8.78355 32.244 8.92224C32.1754 8.92224 32.1906 8.92224 32.1982 8.96847C32.2059 9.0147 32.1982 8.96847 32.122 8.96847C32.129 8.96441 32.1368 8.96227 32.1449 8.96227C32.1529 8.96227 32.1608 8.96441 32.1677 8.96847C32.1677 9.0224 32.2211 9.0147 32.2211 8.96847H32.2592C32.1906 9.04551 32.2592 9.13797 32.183 9.16109C32.2547 9.3127 32.3362 9.4594 32.4269 9.60026C32.4022 9.60836 32.3755 9.60824 32.3508 9.59992C32.3261 9.5916 32.3047 9.57552 32.2897 9.55403V9.6619C32.2059 9.6619 32.2363 9.60796 32.2135 9.57714C32.0991 9.72354 32.3812 9.81599 32.2821 9.9855H32.3507C32.3687 9.98407 32.3867 9.98762 32.4028 9.99576C32.4189 10.0039 32.4325 10.0163 32.4422 10.0317C32.3812 10.0317 32.2821 10.0317 32.2973 10.1242C32.3126 10.2166 32.3507 10.286 32.404 10.3553C32.404 10.3091 32.4498 10.3168 32.4803 10.3553C32.5108 10.3939 32.4193 10.4247 32.4803 10.4478H32.3888C32.4727 10.4478 32.4955 10.5325 32.5413 10.5402C32.4727 10.5402 32.4727 10.494 32.4117 10.494L32.4574 10.7097C32.5413 10.7791 32.5489 10.7097 32.6327 10.7097C32.7166 10.7097 32.7394 10.833 32.6937 10.9255L32.7776 10.887C32.8162 10.9272 32.8378 10.9811 32.8378 11.0372C32.8378 11.0933 32.8162 11.1472 32.7776 11.1874C33.6008 12.0658 33.7456 11.2645 33.7456 11.2645C33.799 10.9486 33.5398 10.7868 33.395 10.3399Z" fill="#FFF0D3"/>
<path d="M47.0236 11.0178C47.2751 10.7482 47.4504 10.779 47.6334 10.4477C47.7578 10.3079 47.8676 10.1556 47.9611 9.9931C47.923 9.84671 48.1288 9.8236 48.1212 9.6695H48.1974C48.1974 9.61557 48.1974 9.56934 48.2584 9.56934C48.2584 9.49229 48.3194 9.47688 48.3194 9.43836V9.38442C48.3259 9.33573 48.3448 9.28957 48.3742 9.25042C48.4036 9.21127 48.4425 9.18046 48.4871 9.16098L48.4185 9.09935C48.6167 9.03771 48.5328 8.8605 48.731 8.82968C48.731 8.51378 49.0817 8.7064 49.0817 8.39051C49.0817 8.42903 49.0817 8.39051 49.135 8.42903C49.1884 8.46755 49.257 8.25182 49.135 8.12854C49.196 8.07461 49.2189 8.12854 49.2722 8.12854C49.2609 8.11842 49.2518 8.10597 49.2456 8.09202C49.2393 8.07808 49.2361 8.06295 49.2361 8.04764C49.2361 8.03234 49.2393 8.01721 49.2456 8.00326C49.2518 7.98931 49.2609 7.97687 49.2722 7.96674V8.00527L49.3713 7.85888L49.2418 7.78953C49.3332 7.78953 49.3866 7.88969 49.4171 7.78953L49.3332 7.70478C49.4323 7.63544 49.6153 7.70478 49.7601 7.70478C50.126 7.35036 50.2175 6.74168 50.6672 6.51824L50.751 6.55677C50.8654 6.62611 50.6748 6.33333 50.751 6.39497V6.31792C50.751 6.31792 50.8196 6.31792 50.8273 6.31792C50.8349 6.31792 50.8273 6.27169 50.8273 6.21776H51.0712C51.2389 6.10218 51.2084 5.87875 51.3609 5.73236C51.6353 5.6476 51.7877 5.18532 51.8792 4.96188C51.9554 4.55352 52.6415 4.55352 52.6415 4.12205C52.6415 4.12205 52.6415 4.07583 52.6415 4.06812L52.8778 3.84468C53.0336 3.68954 53.1556 3.50322 53.236 3.29764C53.3123 3.03568 53.236 2.7429 52.4052 2.82765C52.2222 2.92011 52.1231 3.00486 52.1384 3.20519C51.9935 3.09732 52.0088 3.30535 51.9402 3.30535C51.9402 3.48256 51.681 3.41321 51.7115 3.58272C51.7115 3.58272 51.6658 3.53649 51.7115 3.52108C51.7572 3.50567 51.6353 3.7137 51.5514 3.65206C51.4523 3.82157 51.2465 4.00648 51.2923 4.20681C51.2923 4.33008 51.2465 4.29156 51.2389 4.39172C51.277 4.515 51.1093 4.57664 51.1093 4.65369L51.0483 4.61516L50.9721 4.74614H51.0178C51.155 4.87712 50.8501 4.74614 50.8806 4.92335C50.9111 5.10056 51.0636 5.33171 50.9264 5.36253C50.9264 5.45498 50.8425 5.23925 50.8501 5.36253C50.7663 5.30859 50.8501 5.30089 50.7434 5.27007C50.7434 5.35482 50.591 5.27007 50.591 5.41646H50.53C50.53 5.59367 50.3089 5.53203 50.3699 5.67842C50.4309 5.82481 50.1412 5.60908 50.1793 5.8017H50.065C50.0193 5.8017 50.1412 5.91727 50.065 5.93268C49.9888 5.94809 49.9735 5.93268 49.9507 5.93268C49.783 5.97891 49.8897 6.24087 49.6381 6.27169C49.7144 6.37956 49.6381 6.40267 49.6381 6.48742C49.6381 6.57218 49.5162 6.62611 49.4933 6.48742L49.4399 6.43349C49.2722 6.43349 49.3866 6.62611 49.3027 6.69545C49.3027 6.69545 49.3637 6.64922 49.3866 6.69545L49.318 6.7648V6.71086L49.2036 6.79561H49.2799C49.2036 6.79561 49.0893 6.79561 49.1274 6.88807C49.1655 6.98053 49.2418 6.88807 49.2189 6.98053C49.0987 7.01742 48.9835 7.06917 48.8759 7.13463C48.9445 7.18085 48.9216 7.20397 48.8759 7.24249L48.7844 7.0961C48.7844 7.2579 48.6319 7.01905 48.6091 7.16544V7.11922L48.7005 7.2502C48.7387 7.43511 48.5481 7.18085 48.6167 7.4197C48.6167 7.37347 48.7539 7.51987 48.6853 7.53527L48.6396 7.47364C48.6396 7.51216 48.6396 7.54298 48.6396 7.54298C48.6396 7.54298 48.571 7.45823 48.5481 7.54298L48.5024 7.45823V7.62003C48.3956 7.62003 48.388 7.76642 48.2965 7.71248C48.2051 7.65855 48.1517 7.78953 48.2051 7.8974C48.2051 7.82035 48.0984 7.8974 48.0526 7.78953C48.0526 7.87428 48.0526 8.00527 47.9535 7.98215C47.763 8.04379 47.8163 8.28264 47.6257 8.32116C47.6944 8.3828 47.6257 8.40592 47.6944 8.47526C47.6562 8.66788 47.3208 8.5369 47.5267 8.82197C47.5267 8.89132 47.4047 8.82197 47.3666 8.82197C47.3147 8.90815 47.2505 8.98605 47.176 9.05312C47.176 9.11476 47.2751 9.23033 47.176 9.27656C47.176 9.20721 47.1303 9.27656 47.1074 9.27656C47.0845 9.27656 47.1074 9.23033 47.0388 9.23803C47.0422 9.24526 47.0439 9.25315 47.0439 9.26115C47.0439 9.26914 47.0422 9.27704 47.0388 9.28426C47.0388 9.3459 47.0388 9.3459 47.0388 9.33049C46.9397 9.33049 46.9321 9.46918 46.8406 9.39983C46.7715 9.55057 46.7179 9.70805 46.6805 9.86982C46.6678 9.86553 46.6561 9.85867 46.6461 9.84968C46.6361 9.84069 46.6281 9.82974 46.6224 9.8175C46.6167 9.80526 46.6135 9.79198 46.613 9.77846C46.6125 9.76494 46.6147 9.75147 46.6196 9.73884L46.5662 9.8313C46.5052 9.78507 46.5662 9.75425 46.5662 9.71573C46.3833 9.71573 46.5128 10.0162 46.3223 10.0624V10.1318C46.3223 10.1318 46.368 10.2088 46.368 10.2319C46.368 10.2551 46.2308 10.1318 46.1927 10.1934C46.1546 10.2551 46.1165 10.3475 46.1012 10.44C46.1012 10.44 46.1622 10.44 46.1698 10.44C46.1774 10.44 46.086 10.44 46.0936 10.5016L46.0097 10.4477C46.0936 10.4477 46.0097 10.5941 46.0707 10.6249C46.1317 10.6557 46.0707 10.5401 46.0097 10.5016C45.9335 10.648 46.0097 10.571 45.903 10.7174C45.7963 10.8637 45.9869 10.7174 46.0402 10.8252C46.0936 10.9331 46.0402 10.987 45.9564 11.0332H46.0402C46.0402 11.1719 46.0402 11.249 45.8878 11.2952C46.0402 11.8885 46.2765 11.9424 46.4366 11.9347C46.5409 11.9186 46.6386 11.8732 46.7186 11.8037C47.0159 11.6265 46.8863 11.3954 47.0236 11.0178Z" fill="#FFF0D3"/>
<path d="M55.9881 21.3423H55.9805V21.35L55.9881 21.3423Z" fill="#202020"/>
<path d="M54.4852 21.7584C54.8968 21.6814 55.0569 21.797 55.4304 21.5889C55.6211 21.5255 55.8049 21.4429 55.9793 21.3424C56.025 21.1806 56.2156 21.2499 56.2765 21.1112L56.3451 21.1652C56.3451 21.1189 56.3909 21.0727 56.4442 21.1035C56.4442 21.0342 56.551 21.0419 56.5662 21.0111H56.6272C56.6564 20.9736 56.6933 20.9432 56.7355 20.9219C56.7777 20.9006 56.824 20.8889 56.8711 20.8878V20.803C57.0769 20.8416 57.0769 20.6412 57.2675 20.7029C57.3894 20.4255 57.6105 20.7645 57.7477 20.4871C57.7477 20.5257 57.7477 20.5334 57.7477 20.5488C57.7477 20.5642 57.9459 20.4486 57.9002 20.2791C57.9688 20.2791 57.9688 20.3176 57.9993 20.3793C57.9947 20.3641 57.9932 20.3481 57.995 20.3324C57.9968 20.3166 58.0018 20.3014 58.0097 20.2876C58.0175 20.2739 58.0281 20.262 58.0408 20.2525C58.0534 20.2431 58.0678 20.2364 58.0831 20.2329V20.2714L58.2356 20.1944L58.167 20.0634C58.2584 20.0634 58.2356 20.2252 58.3118 20.1712V20.0557C58.4338 20.0557 58.5557 20.1944 58.7006 20.2406C59.1884 20.125 59.5772 19.6627 60.0726 19.7013L60.1184 19.7783C60.1717 19.9016 60.1717 19.5549 60.2327 19.6627V19.5857C60.2327 19.5857 60.2861 19.5857 60.2708 19.655C60.2556 19.7244 60.3166 19.655 60.3318 19.578L60.408 19.6319C60.6138 19.6319 60.7129 19.4239 60.9111 19.3854C61.1932 19.4624 61.5667 19.1773 61.7801 19.0078C62.0698 18.7073 62.6186 19.0772 62.9006 18.7844C62.9006 18.7844 62.9388 18.7459 62.9006 18.7382L63.2665 18.7227C63.4735 18.6823 63.6737 18.6123 63.8611 18.5147C64.0669 18.3606 64.227 18.0832 63.48 17.6287C63.2589 17.5824 63.1293 17.6287 63.0302 17.7674C62.9693 17.5978 62.8702 17.7674 62.8092 17.7674C62.7253 17.9292 62.5424 17.7134 62.4585 17.8598C62.4585 17.8598 62.4585 17.7982 62.4585 17.7905C62.3747 17.829 62.2832 17.906 62.2451 17.7905C62.0622 17.8752 61.7801 17.906 61.7115 18.1064C61.7115 18.2296 61.6277 18.1449 61.5743 18.2296C61.5743 18.3606 61.3685 18.3144 61.3228 18.3837V18.3221L61.1779 18.3837H61.2389C61.2389 18.5686 61.0865 18.3144 61.0178 18.4685C60.9111 18.4685 60.9416 18.9 60.812 18.8537C60.812 18.9539 60.812 18.6996 60.7587 18.7921C60.7206 18.6996 60.7587 18.7227 60.7587 18.6534C60.7053 18.7227 60.6062 18.5995 60.5452 18.6996V18.6303C60.4766 18.7998 60.2937 18.6303 60.2632 18.7613C60.2327 18.8922 60.1031 18.5764 60.0345 18.7613L59.9507 18.6842C59.8897 18.6842 59.9507 18.8152 59.8821 18.7921C59.8135 18.769 59.7906 18.7921 59.7982 18.6996C59.6381 18.6534 59.5848 18.9308 59.3485 18.8306C59.3485 18.9693 59.2418 18.9231 59.2494 19.0232C59.2494 18.977 59.0664 19.0849 59.1274 18.9308V18.8537C58.9826 18.7536 58.975 18.9924 58.8683 19.0078C58.8683 19.0078 58.9445 19.0078 58.9292 19.054H58.8378V18.9924H58.6929L58.7387 19.0618C58.6548 19.0618 58.5938 18.9308 58.5557 19.0618C58.5176 19.1927 58.6472 19.1388 58.5557 19.185C58.4314 19.1525 58.3028 19.1395 58.1746 19.1465C58.2127 19.2313 58.1746 19.239 58.1746 19.2621V19.1927C58.0907 19.3314 58.0831 19.0463 57.9916 19.1927C57.9307 19.3699 57.8925 19.0541 57.8316 19.2929C57.8773 19.2929 57.9078 19.447 57.8316 19.4316V19.3545C57.8316 19.3545 57.8316 19.4162 57.7782 19.4085C57.7249 19.4008 57.7782 19.3006 57.7172 19.3237V19.2621L57.6715 19.4162C57.58 19.3622 57.5038 19.4932 57.4428 19.4162C57.3818 19.3391 57.2675 19.4162 57.2599 19.5395C57.2599 19.4624 57.176 19.4624 57.176 19.3699C57.176 19.4624 57.0541 19.5626 56.9778 19.5009C56.7644 19.5009 56.711 19.7167 56.5205 19.6781C56.5205 19.7552 56.4595 19.7398 56.5205 19.8399C56.3909 20.0017 56.147 19.7321 56.2079 20.0788C56.147 20.125 56.1012 20.0326 56.0555 20.0326C55.9765 20.088 55.8889 20.1297 55.7963 20.1558C55.7963 20.2098 55.7963 20.3639 55.7048 20.3639C55.6134 20.3639 55.7048 20.3176 55.6439 20.3253C55.5829 20.333 55.6439 20.2868 55.6439 20.256C55.6439 20.2252 55.6439 20.2945 55.6439 20.3099C55.5981 20.3485 55.6439 20.3639 55.6439 20.3639V20.4024C55.56 20.3407 55.4914 20.464 55.4457 20.3639C55.2932 20.4486 55.2094 20.6027 55.0874 20.6875C55.0726 20.6675 55.0645 20.6431 55.0645 20.6181C55.0645 20.5931 55.0726 20.5688 55.0874 20.5488L54.9959 20.6027C54.9959 20.5257 54.9959 20.5334 55.0645 20.5103C54.9045 20.4255 54.8663 20.7183 54.691 20.6489V20.726C54.7034 20.7582 54.7034 20.7939 54.691 20.8262C54.691 20.7645 54.6453 20.6644 54.5767 20.6952C54.5081 20.726 54.4395 20.7722 54.3785 20.8262C54.3175 20.8801 54.4242 20.8724 54.3785 20.9032C54.3328 20.934 54.3099 20.8493 54.2946 20.9032V20.8107C54.2946 20.8955 54.2337 20.934 54.2337 20.9725C54.2337 21.0111 54.2337 20.8955 54.2337 20.8416L54.0355 20.9109C53.9821 20.9957 54.0736 20.9957 54.0355 21.0881C53.9974 21.1806 53.9288 21.196 53.8373 21.1575L53.883 21.2345C53.7687 21.327 53.6924 21.3424 53.5934 21.2345C53.1894 21.6429 53.1131 21.8817 53.2046 22.005C53.2825 22.1037 53.3939 22.1696 53.5171 22.1899C53.883 22.2592 54.0431 21.9433 54.4852 21.7584Z" fill="#FFF0D3"/>
<path d="M61.3542 42.2685C62.7168 45.4812 63.5287 48.9047 63.7553 52.3926C64.0983 55.7981 64.1898 59.3269 62.993 62.5321C61.6133 66.3075 58.6176 69.2276 55.4999 71.7316C54.3502 72.6722 53.1237 73.5124 51.8334 74.2434C47.6181 76.5548 33.1579 79.7908 11.6848 60.1282C9.40561 58.0248 0.144055 49.4879 -0.000775801 46.3598C-0.0710122 45.7348 0.05712 45.1034 0.365113 44.5568C0.655246 44.189 1.04314 43.9125 1.48329 43.7596C1.92344 43.6068 2.39759 43.584 2.85011 43.6939C3.75391 43.9345 4.59953 44.3593 5.3351 44.9421C10.5384 48.5997 15.2816 52.8843 19.4599 57.7012C19.6189 56.7305 19.9167 55.7883 20.3442 54.9044C14.0021 50.0812 1.79818 35.8504 1.43991 34.5483C1.2474 33.9061 1.22419 33.2242 1.3726 32.5701C1.52101 31.916 1.83588 31.3125 2.28603 30.8192C2.85291 30.3622 3.537 30.0782 4.258 30.0004C4.979 29.9226 5.707 30.0543 6.35654 30.38C7.66002 30.9271 23.6295 48.4632 24.4833 48.4632L25.7029 45.8589C18.812 39.8437 12.5026 33.1799 6.85963 25.9575C6.19352 25.2482 5.73676 24.3649 5.54091 23.4072C5.35034 21.6505 7.06545 19.5548 8.7653 19.9169C11.9592 20.595 24.2622 35.0337 31.2522 39.8338L32.853 37.8537C27.12 32.7563 21.8472 27.1533 17.0969 21.1112C16.259 20.1749 15.6276 19.0692 15.2446 17.8675C15.0613 17.262 15.0613 16.6149 15.2447 16.0094C15.428 15.4039 15.7864 14.8677 16.2736 14.4697C17.7982 13.4218 19.8563 14.5159 21.3503 15.6331C26.0993 19.185 42.4194 36.5747 48.0297 37.8152C45.8547 35.8068 43.7102 33.7522 41.5962 31.6513C39.1112 29.2089 33.135 24.64 37.2512 20.8646C40.2088 18.1757 55.4923 33.1384 57.7258 36.2742C59.1126 38.1569 60.3271 40.1633 61.3542 42.2685Z" fill="#FFF0D3"/>
</g>
<defs>
<clipPath id="clip0_711_164">
<rect width="64" height="76" fill="white"/>
</clipPath>
</defs>
</svg>
